<?xml version="1.0" encoding="UTF-8"?>
<svg version="1.1" xmlns="http://www.w3.org/2000/svg" width="4806" height="2576">
<path d="M0 0 C35.4898477 11.82994923 66.29892619 27.15302015 96 50 C112.92673425 64.50862936 127.2556835 79.75713021 141 97 C144.96 97.33 148.92 97.66 153 98 C153 70.28 153 42.56 153 14 C219.33 14 285.66 14 354 14 C354 832 354 832 325 919 C303.14030194 971.46327535 276.21716645 1014.64759283 239 1056 C205.32414507 1089.67585493 166.1816449 1114.43731195 123 1135 C70.65389222 1155.13311838 19.15797602 1166.69658965 -37 1170 C-106.39247151 1170 -168.44157138 1163.26266822 -234 1140 C-285.53217602 1117.66939039 -330.2592378 1090.14865387 -371.1015625 1051.80029297 C-398.87212638 1025.46539867 -419.72192844 993.50979787 -438 960 C-441.3 952.08 -444.6 944.16 -448 936 C-448 934.68 -448 933.36 -448 932 C-423.53102026 921.70506616 -398.85400151 911.93501575 -374.18200684 902.13955688 C-362.16734826 897.36932115 -350.1557572 892.59137114 -338.14453125 887.8125 C-336.96444866 887.34303263 -335.78436607 886.87356525 -334.56852341 886.3898716 C-314.1081031 878.24910677 -293.66705983 870.06139296 -273.25 861.8125 C-272.59913044 861.54956272 -271.94826088 861.28662544 -271.277668 861.01572037 C-263.85002278 858.01481442 -256.42383538 855.01031971 -249 852 C-248.34 852 -247.68 852 -247 852 C-244.36 858.6 -241.72 865.2 -239 872 C-228.22946953 892.4640079 -216.31299416 909.77288158 -201 927 C-182.81745412 942.90972765 -164.36755356 954.75391918 -143 966 C-104.76366405 979.76508094 -78.12774871 982 -37 982 C-5.06592439 977.4379892 21.12537876 970.43731062 50 956 C63.34479881 947.10346746 75.64812771 938.35187229 87 927 C87.66 927 88.32 927 89 927 C89.66 925.68 90.32 924.36 91 923 C93.31 920.69 95.62 918.38 98 916 C115.00555825 893.89277428 126.61618212 871.95954469 137 846 C152.56085891 792.64848374 152.25221547 744.08383996 153 688 C149.04 688.33 145.08 688.66 141 689 C137.37 693.62 133.74 698.24 130 703 C102.17210748 733.35770093 73.39561832 754.01098175 37 773 C2.53511972 786.4862575 -31.11764177 794.64705834 -68 798 C-124.77163589 798 -170.62831485 793.5640644 -224 775 C-266.16292282 756.44831396 -301.60962669 734.47746283 -336 705 C-351.54525817 689.45474183 -365.46310347 675.06617806 -379.0625 658.3125 C-381.021875 655.899375 -382.98125 653.48625 -385 651 C-414.54455871 606.68316194 -436.12390193 563.6282942 -453 513 C-466.0867203 456.91405584 -469.47688755 404.36864459 -466 347 C-459.4226098 296.02522595 -447.02985623 250.91275621 -426 204 C-402.83545295 159.45279414 -374.8592519 119.00546019 -339 84 C-307.40026002 56.12942188 -273.14765997 34.31087679 -235 16 C-156.60181045 -13.73724431 -81.92887119 -18.90666258 0 0 Z M-132 193 C-160.89726291 206.59871196 -182.56725498 223.56725498 -205 246 C-223.11223116 269.68522537 -236.36114436 293.07300395 -247 321 C-255.43280361 353.32574718 -257 379.42797459 -257 413 C-252.88762102 447.26982485 -244.94579437 474.86292839 -230 506 C-216.75036996 527.19940806 -202.34019216 544.96982157 -184 562 C-160.63355317 579.52483513 -137.70204147 591.76598618 -110 601 C-77.72143145 608.68537347 -49.83459807 609.78860747 -17 606 C13.869652 598.98417 40.04499697 588.84687689 67 572 C88.05672986 554.89140699 104.33007254 538.19906391 120 516 C135.29632994 488.46660611 144.79455429 463.02722855 151 432 C154.61933578 395.80664223 152.69923826 362.41649601 145 327 C136.21640296 300.64920889 124.72438202 277.8718284 109 255 C90.62384396 233.56115129 72.13136189 217.74694338 48 203 C20.53133306 189.91968241 -5.79017148 181.77622856 -36 178 C-71.11128266 178 -98.96950953 181.43932833 -132 193 Z " fill="#EA4335" transform="translate(2569,1074)"/>
<path d="M0 0 C44.64333572 16.53456879 83.40925941 37.76275732 121 67 C136 80 136 80 143 87 C146.96 90.465 146.96 90.465 151 94 C185.2643632 131.32600783 211.82529731 172.06668729 234 218 C254.06501836 269.0745922 265.17076807 318.26870477 270 373 C270 441.71220961 263.71953548 500.84139355 242 566 C221.59032967 614.9832088 196.76791944 657.88316987 162 698 C159.36 700.64 156.72 703.28 154 706 C151.69 708.64 149.38 711.28 147 714 C112.43099808 745.77734713 76.81523585 769.59238208 34 791 C-5.88678093 806.6078708 -44.18208862 816.27670336 -87 820 C-135.19833082 820 -178.13269305 816.28910232 -224 801 C-254.92888906 787.25382708 -281.22050963 770.81341493 -307 749 C-322.10434177 733.89565823 -334.5786993 719.94775824 -346 702 C-346 701.34 -346 700.68 -346 700 C-349.96 700 -353.92 700 -358 700 C-354.04 734.32 -350.08 768.64 -346 804 C-346 914.88 -346 1025.76 -346 1140 C-415.3 1140 -484.6 1140 -556 1140 C-556 767.1 -556 394.2 -556 10 C-490.99 10 -425.98 10 -359 10 C-359 41.02 -359 72.04 -359 104 C-354.71 104 -350.42 104 -346 104 C-345.34 102.35 -344.68 100.7 -344 99 C-336.29734524 87.44601786 -328.28336392 77.3148488 -319 67 C-317.68 65.35 -316.36 63.7 -315 62 C-314.55011719 61.61070313 -314.10023438 61.22140625 -313.63671875 60.8203125 C-307.67503366 55.63519962 -301.83620077 50.3255332 -296 45 C-268.6070726 24.8157377 -241.87854364 9.95445387 -210 -2 C-139.48278474 -21.2319678 -70.44283188 -19.43250535 0 0 Z M-214 188 C-242.07564915 198.69548539 -265.0966305 211.6202258 -288 231 C-309.20271697 252.20271697 -324.00497833 273.56495907 -338 300 C-348.35018513 325.87546284 -354.74304682 350.31589798 -358 378 C-358 421.60320161 -355.62128078 454.13615766 -342 495 C-326.66256278 527.06918691 -309.03819254 551.96180746 -284 577 C-260.7435849 594.78431743 -238.52242655 606.67909004 -211 617 C-181.92413164 624.26896709 -159.77032663 625 -129 625 C-97.33105617 619.72184269 -71.42544266 610.88951758 -43 596 C-22.23151067 581.72166359 -3.9748074 566.5247646 12 547 C30.04825881 521.43163335 42.08240619 496.75278142 52 467 C59.43900938 432.78055683 60.79578374 401.94729673 58 367 C51.65769182 334.01999748 42.22816314 306.50575117 26 277 C8.01370716 250.8381195 -11.20033463 230.42833241 -37 212 C-64.01686404 196.10772703 -90.08205666 185.88913207 -121 180 C-153.86778376 175.89152703 -182.65352733 179.8226593 -214 188 Z " fill="#34A853" transform="translate(4331,1078)"/>
<path d="M0 0 C44.40234621 15.98484464 83.91350641 36.86061218 121 66 C138.64527153 81.12451845 155.25978602 96.98418291 170 115 C171.85041392 117.23228278 173.70370951 119.46218744 175.5625 121.6875 C198.63500952 149.30951844 214.48265473 181.33597313 229 214 C252.36192329 284.08576988 258 345.46675913 258 419 C252.75173967 481.97912394 241.00133903 540.21924659 215 598 C190.77785424 644.58104953 164.2562362 677.7437638 128 714 C121.62422427 719.21654378 115.25264973 724.4275499 108.8125 729.5625 C106.564375 731.356875 104.31625 733.15125 102 735 C61.87966787 763.08423249 20.52915097 781.99059646 -26 797 C-96.14070637 814.53517659 -164.81727826 818.65694979 -237 814 C-301.39861306 806.42369258 -358.95585513 791.02207244 -417 762 C-438.92006374 748.6573525 -459.94887411 734.87948865 -479.03125 717.65234375 C-482.66319649 714.4074863 -486.33470154 711.20713616 -490 708 C-509 689 -509 689 -512.8125 684.3125 C-518.13105724 677.80827713 -523.56050638 671.40345452 -529 665 C-558.5997355 622.71466357 -578.03172002 581.51794495 -593 531 C-609.74369243 456.84936211 -611.44377299 384.55018391 -602 309 C-592.71015019 261.00244263 -578.85518293 217.71036585 -557 174 C-533.26397808 134.43996347 -504.75477622 98.84308761 -469 69.5625 C-466.36 67.396875 -463.72 65.23125 -461 63 C-419.09590483 32.73593127 -375.20586932 11.74587818 -326 -4 C-217.78347436 -31.05413141 -107.28529589 -31.29154463 0 0 Z M-232 174 C-250.76706325 180.9141812 -265.74476236 188.38911597 -282 200 C-297.32948224 213.1395562 -308.33298242 225.4717251 -320 242 C-338.63662387 275.13177577 -347.75009813 307.50058879 -354 345 C-358.35198037 392.87178408 -356.40998523 438.90408269 -348 486 C-340.09797041 514.22153425 -330.50851937 538.18636902 -315 563 C-299.65076592 580.90743976 -285.28675851 593.8279449 -265 606 C-239.06264231 617.52771453 -214.35673967 623.81871233 -186 626 C-159.56853552 626 -136.60802547 624.40200637 -111 618 C-92.59333633 611.2185976 -77.68480502 603.76360376 -62 592 C-44.55240201 576.0063685 -32.63723908 559.68842502 -21 539 C-3.76888967 495.92222419 3.67911856 454.41762879 6 408 C6 358.95348425 2.5718125 313.71543751 -13 267 C-23.45881849 243.75818114 -34.81175925 225.7508081 -52 207 C-67.47339169 193.90713011 -82.48306479 185.22974898 -101 177 C-145.07354975 163.77793507 -187.2240573 162.80601433 -232 174 Z " fill="#00ADD8" transform="translate(1791,1091)"/>
<path d="M0 0 C43.12056415 11.89532804 81.44346065 27.58824943 119 52 C136.18105305 64.27218075 152.59921078 77.17770597 168.0625 91.5625 C168.71927734 92.17158203 169.37605469 92.78066406 170.05273438 93.40820312 C198.67724225 120.058607 220.61624667 152.07843168 240 186 C243.96 194.25 247.92 202.5 252 211 C251.67 211.99 251.34 212.98 251 214 C249.28683594 214.70624512 249.28683594 214.70624512 247.5390625 215.42675781 C219.34474293 227.05191869 191.17797007 238.74164849 163.03222656 250.48388672 C154.01766675 254.24441993 145.00116015 258.00028081 135.98480225 261.75650024 C131.05228955 263.81143649 126.1199007 265.86666996 121.1875 267.921875 C119.19531311 268.75195458 117.2031256 269.58203269 115.2109375 270.41210938 C114.20256836 270.83226318 113.19419922 271.25241699 112.15527344 271.68530273 C95.10351562 278.79020182 78.05175781 285.89510091 61 293 C60.01 292.67 59.02 292.34 58 292 C55.03 286.39 52.06 280.78 49 275 C31.76021871 249.14032806 14.58437927 229.79981944 -10 211 C-30.29806394 199.72329781 -48.49937461 192.86972836 -71 187 C-101.56988177 182.83137976 -130.57520655 182.92920109 -161 188 C-186.16990283 195.19140081 -208.22673198 204.48448799 -230 219 C-249.03511146 233.64239343 -264.36205894 248.85807707 -279 268 C-295.93914434 296.23190723 -306.00908069 322.03632275 -314 354 C-319.46747581 392.2723307 -318.92355331 428.92045679 -312 467 C-303.65747803 496.79472132 -293.17235857 522.24146215 -276 548 C-258.95441332 569.30698335 -240.71233643 585.85844238 -218 601 C-191.51556923 614.87279707 -166.72421617 623.7536834 -137 628 C-101.16968543 628 -74.95343417 626.50696157 -41 617 C-16.73673846 606.78388988 2.58270768 594.92365445 22 577 C40.88639552 558.11360448 54.56608261 537.18757568 67 514 C80 519 80 519 83.3815918 520.47094727 C123.00015075 537.70369786 162.62819309 554.9146574 202.2734375 572.0859375 C207.0918274 574.17291063 211.90939951 576.26175975 216.7265625 578.3515625 C231.13640323 584.60205615 245.55547599 590.82998809 260 597 C250.86640833 624.40077502 230.43145223 649.3391121 213 672 C206.45414998 679.78873293 199.84852867 687.47507344 193 695 C191.31150328 696.87410247 189.62398223 698.74908451 187.9375 700.625 C161.14132466 730.39852816 128.89004131 754.02045062 95 775 C47.62170416 799.56652377 1.77840729 813.00327162 -51 821 C-113.85549101 825.83503777 -172.61952923 823.73131298 -234 809 C-281.0217409 794.89347773 -322.19773288 775.20151141 -363 748 C-388.76018305 728.67986271 -413.25560859 707.47887715 -433.74609375 682.5 C-434.57258423 681.49453125 -434.57258423 681.49453125 -435.41577148 680.46875 C-436.4165271 679.24671875 -436.4165271 679.24671875 -437.4375 678 C-439.603125 675.36 -441.76875 672.72 -444 670 C-477.12673945 624.13220691 -500.16739642 576.28321227 -516 522 C-528.6522499 467.17358375 -531.39466085 415.01190409 -528 359 C-521.44782897 306.58263173 -509.01429577 259.03119078 -487 211 C-464.4771032 167.56298475 -436.74800348 129.10977485 -402 95 C-365.22074126 62.4431335 -324.11502838 37.61522973 -279 18 C-187.64089138 -14.8892791 -95.10148747 -19.02029749 0 0 Z " fill="#FBBC05" transform="translate(3490,1074)"/>
<path d="M0 0 C0.33 0.33 0.66 0.66 1 1 C1 64.36 1 127.72 1 193 C-2.63 191.02 -6.26 189.04 -10 187 C-55.93464256 164.03267872 -100.15459776 148.82236957 -151 141 C-184.85108715 138.17907607 -216.06445457 137.76611364 -249 146 C-264.10557281 152.95650161 -264.10557281 152.95650161 -273 160 C-273.99 160.33 -274.98 160.66 -276 161 C-276.66 162.32 -277.32 163.64 -278 165 C-279.98 167.97 -281.96 170.94 -284 174 C-288.0475246 183.10693035 -289.90240931 190.1216838 -291 200 C-291 214.01424477 -288.72546251 224.76870498 -284 238 C-277.24988532 249.27648908 -277.24988532 249.27648908 -268 259 C-244.15576359 276.03159743 -217.91094734 288.18624546 -190.359375 298.11328125 C-132.41072699 319.03682387 -75.87859514 341.59105365 -26 379 C-6.27812422 395.90446496 8.9266354 413.10809952 23 435 C35.95762977 459.29555582 43.09390691 483.01648801 48 510 C50.97682944 544.23353854 49.04406801 575.15321912 43 609 C33.75262865 639.05395688 22.80260585 664.10530059 5 690 C-18.58476762 718.82582709 -44.33602602 740.3984923 -76 760 C-118.3222857 782.16881632 -160.97639676 794.45025396 -208 803 C-286.54677021 812.24079649 -362.17649677 809.28693958 -440 796 C-472.00799514 788.41915905 -502.95878535 779.86442513 -534 769 C-534 702.34 -534 635.68 -534 567 C-523 573 -523 573 -519.74536133 574.77587891 C-464.53457503 604.84852463 -407.62134873 626.56310854 -345 637 C-308.21167521 640.34439316 -273.91016956 639.55004037 -238 631 C-224.31951014 625.01478569 -214.14871142 619.75512249 -203 610 C-193.58991093 596.7443448 -193.58991093 596.7443448 -190 583 C-188.53420287 575.21901097 -188.53420287 575.21901097 -189 560 C-191.50837222 546.8100529 -191.50837222 546.8100529 -198 535 C-207.3377373 523.32782837 -215.2022034 516.87556714 -228 509 C-269.24951681 487.47851297 -311.65477209 470.61970398 -355 454 C-393.89641514 437.19229449 -433.37810152 419.29248236 -465 390.4375 C-469.61667558 386.23281845 -474.28386823 382.09324644 -479 378 C-493.9810316 361.35440933 -505.01337708 343.97324583 -515 324 C-525.75462592 297.1134352 -530.80527918 271.75248735 -534 243 C-534 204.64002019 -531.11326169 172.33978508 -519 136 C-506.70813357 108.68474127 -491.93277929 86.14753255 -472 64 C-444.7471222 36.7471222 -414.17939939 17.75209495 -379 1 C-255.52939966 -45.30147513 -125.03552762 -37.04756374 0 0 Z " fill="#00ADD8" transform="translate(767,1098)"/>
<path d="M0 0 C81.84 0 163.68 0 248 0 C248 391.05 248 782.1 248 1185 C166.16 1185 84.32 1185 0 1185 C0 793.95 0 402.9 0 0 Z " fill="#00ADD8" transform="translate(871,702)"/>
<path d="M0 0 C0.66 0 1.32 0 2 0 C2.36609375 0.42667969 2.7321875 0.85335938 3.109375 1.29296875 C7.45683711 6.31325238 11.93469995 11.20142975 16.44750977 16.07226562 C21.0141389 21.0045387 25.51656215 25.99199173 30 31 C34.80527265 36.35939418 39.63064912 41.69871778 44.5 47 C50.10294652 53.09995079 55.6421281 59.25561047 61.171875 65.421875 C65.72235371 70.48872009 70.30605967 75.52362488 74.91357422 80.53857422 C78.5298002 84.47792546 82.10882405 88.44926265 85.6796875 92.4296875 C88.31079783 95.34428447 90.96652475 98.23539224 93.625 101.125 C96.6022264 104.36213091 99.55952966 107.61137856 102.4375 110.9375 C106.01802312 115.06755185 109.73579762 119.0660407 113.45019531 123.07519531 C118.01596642 128.00645654 122.51744662 132.99297968 127 138 C133.61675308 145.37976605 140.29228725 152.70301155 147 160 C144.06363793 168.80908622 140.44858236 177.3785441 137 186 C127.46722297 218.41144192 126 247.12421833 126 281 C130.11237898 315.26982485 138.05420563 342.86292839 153 374 C165.96546986 394.74475178 179.99864415 412.38336383 198 429 C221.36644683 446.52483513 244.29795853 458.76598618 272 468 C304.27856855 475.68537347 332.16540193 476.78860747 365 473 C381.11422935 469.36411091 381.11422935 469.36411091 396.9375 464.6875 C403.625 462.45833333 410.3125 460.22916667 417 458 C424.05615401 465.61730331 431.07407352 473.26372746 438 481 C442.80527265 486.35939418 447.63064912 491.69871778 452.5 497 C458.10294652 503.09995079 463.6421281 509.25561047 469.171875 515.421875 C473.72235371 520.48872009 478.30605967 525.52362488 482.91357422 530.53857422 C486.5298002 534.47792546 490.10882405 538.44926265 493.6796875 542.4296875 C496.31079796 545.34428461 498.96653439 548.23538313 501.625 551.125 C513.54113533 564.08227065 513.54113533 564.08227065 515 567 C494.00120772 592.66519056 470.24172098 612.05496741 442 629 C411.2988064 645.01801405 381.8736926 654.94298071 348 662 C300.01505157 668.25890632 253.53088132 667.1405541 206 658 C162.57514386 645.84104028 124.11221202 629.25322583 86 605 C55.10533015 581.95990723 27.38997802 556.43655318 2.9375 526.3125 C0.978125 523.899375 -0.98125 521.48625 -3 519 C-32.54455871 474.68316194 -54.12390193 431.6282942 -71 381 C-84.0867203 324.91405584 -87.47688755 272.36864459 -84 215 C-77.4226098 164.02522595 -65.02985623 118.91275621 -44 72 C-33.60206383 52.0039689 -23.10674791 32.73993279 -10.1875 14.25 C-9.13212036 12.73841309 -9.13212036 12.73841309 -8.05541992 11.19628906 C-7.49443604 10.39416992 -6.93345215 9.59205078 -6.35546875 8.765625 C-5.78465576 7.94868164 -5.21384277 7.13173828 -4.62573242 6.29003906 C-3.11772668 4.16583215 -1.57360707 2.07591079 0 0 Z " fill="#00ADD8" transform="translate(2187,1206)"/>
<path d="M0 0 C3.04380705 3.04380705 6.04565212 6.07301161 8.98828125 9.20703125 C9.69404297 9.95791016 10.39980469 10.70878906 11.12695312 11.48242188 C11.84818359 12.25134766 12.56941406 13.02027344 13.3125 13.8125 C14.05306641 14.60076172 14.79363281 15.38902344 15.55664062 16.20117188 C20.95123235 21.94380177 20.95123235 21.94380177 22.3203125 23.52148438 C26.14575523 27.91411937 30.02859596 32.23928838 34 36.5 C37.2124669 39.96201735 40.41106665 43.42652808 43.5 47 C47.05683038 51.11204293 50.75583684 55.0876962 54.45043945 59.07543945 C59.01610385 64.00664258 63.51752326 68.99306529 68 74 C73.27028483 79.87802939 78.57232185 85.72500385 83.91357422 91.53857422 C87.5298002 95.47792546 91.10882405 99.44926265 94.6796875 103.4296875 C97.31079783 106.34428447 99.96652475 109.23539224 102.625 112.125 C105.6022264 115.36213091 108.55952966 118.61137856 111.4375 121.9375 C115.01802312 126.06755185 118.73579762 130.0660407 122.45019531 134.07519531 C127.01596642 139.00645654 131.51744662 143.99297968 136 149 C140.80527265 154.35939418 145.63064912 159.69871778 150.5 165 C155.36936796 170.3013008 160.19310347 175.64204832 165 181 C166.68721535 182.87525615 168.37470907 184.75026187 170.0625 186.625 C171.361875 188.06875 172.66125 189.5125 174 191 C159.7087485 231.83214714 139.62551637 268.2225135 114 303 C83.97242502 338.58823702 52.82524429 366.65666273 13 392 C-35.10968449 418.24164609 -83.01360716 434.35957271 -137 444 C-202.44353834 451.27150426 -265.32221759 449.93555648 -330 437 C-378.35092536 423.98244317 -422.4155315 405.36181383 -465 379 C-505.74014214 349.57656401 -537.53177655 319.99258897 -567 280 C-580.41812549 258.75463463 -591.32567239 238.21838626 -601 215 C-601 213.68 -601 212.36 -601 211 C-576.53102026 200.70506616 -551.85400151 190.93501575 -527.18200684 181.13955688 C-515.16734826 176.36932115 -503.1557572 171.59137114 -491.14453125 166.8125 C-489.37440737 166.10829894 -489.37440737 166.10829894 -487.56852341 165.3898716 C-467.1081031 157.24910677 -446.66705983 149.06139296 -426.25 140.8125 C-425.59913044 140.54956272 -424.94826088 140.28662544 -424.277668 140.01572037 C-416.85002278 137.01481442 -409.42383538 134.01031971 -402 131 C-401.34 131 -400.68 131 -400 131 C-397.36 137.6 -394.72 144.2 -392 151 C-381.22946953 171.4640079 -369.31299416 188.77288158 -354 206 C-335.81745412 221.90972765 -317.36755356 233.75391918 -296 245 C-257.76366405 258.76508094 -231.12774871 261 -190 261 C-158.06592439 256.4379892 -131.87462124 249.43731062 -103 235 C-89.65520119 226.10346746 -77.35187229 217.35187229 -66 206 C-65.34 206 -64.68 206 -64 206 C-63.34 204.68 -62.68 203.36 -62 202 C-59.69 199.69 -57.38 197.38 -55 195 C-37.99444175 172.89277428 -26.38381788 150.95954469 -16 125 C-3.78404127 83.11671294 -1.03791787 43.59255072 0 0 Z " fill="#00ADD8" transform="translate(2722,1795)"/>
</svg>
