<svg version="1.1" id="Layer_1" xmlns="http://www.w3.org/2000/svg" xmlns:xlink="http://www.w3.org/1999/xlink" x="0px" y="0px"
	 width="100%" viewBox="0 0 4806 2576" enable-background="new 0 0 4806 2576" xml:space="preserve">
<path fill="#000000" opacity="1.000000" stroke="none" 
	d="
M4490.000000,2578.000000 
	C2993.333252,2578.000000 1497.666626,2578.000000 2.000000,2578.000000 
	C2.000000,1719.333374 2.000000,860.666687 2.000000,2.000000 
	C1604.000000,2.000000 3206.000000,2.000000 4808.000000,2.000000 
	C4808.000000,860.666687 4808.000000,1719.333374 4808.000000,2578.000000 
	C4702.333496,2578.000000 4596.666504,2578.000000 4490.000000,2578.000000 
M2725.778809,1801.055420 
	C2725.956299,1823.668457 2725.305420,1846.232910 2722.317139,1868.690308 
	C2717.706787,1903.341187 2708.023926,1936.318848 2689.593506,1966.273926 
	C2665.746094,2005.033325 2632.774902,2032.998657 2589.521729,2047.780884 
	C2551.039307,2060.932617 2511.295410,2064.230713 2471.551270,2055.914062 
	C2406.919189,2042.389648 2359.485840,2005.968750 2331.709717,1945.287476 
	C2329.279297,1939.978027 2326.952881,1934.620972 2324.336426,1928.743408 
	C2257.070801,1955.660400 2190.555908,1982.276978 2123.115967,2009.263672 
	C2128.510742,2021.300171 2132.814209,2032.452026 2138.340820,2042.960571 
	C2160.459961,2085.020264 2190.284912,2120.805176 2227.083008,2150.889404 
	C2299.083008,2209.752686 2382.289795,2239.480469 2474.364014,2245.460693 
	C2501.543213,2247.225830 2528.828369,2246.998047 2556.110352,2244.577637 
	C2581.995117,2242.280762 2607.565430,2238.656738 2632.694336,2232.146729 
	C2730.263184,2206.869873 2808.019287,2153.883789 2861.686523,2067.570801 
	C2877.184814,2042.644897 2890.097900,2016.402222 2899.892578,1987.199341 
	C2917.278564,1938.172485 2925.257324,1887.451172 2926.216309,1835.630127 
	C2926.851318,1801.315796 2926.336670,1766.980225 2926.336670,1732.654175 
	C2926.336670,1523.031982 2926.336670,1313.409790 2926.336670,1103.787598 
	C2926.336670,1099.581421 2926.336670,1095.375244 2926.336670,1091.008545 
	C2858.778076,1091.008545 2792.655029,1091.008545 2725.589111,1091.008545 
	C2725.589111,1118.874634 2725.589111,1146.085449 2725.589111,1173.026245 
	C2717.352051,1176.049438 2712.618408,1173.522583 2707.855469,1167.331055 
	C2677.833984,1128.303101 2638.993896,1100.948608 2593.044434,1083.997314 
	C2547.486572,1067.190552 2500.249268,1062.296875 2451.825439,1065.487549 
	C2405.654785,1068.529907 2362.205566,1080.725708 2320.795410,1100.855591 
	C2287.601074,1116.991821 2257.822266,1138.138550 2231.138184,1163.539551 
	C2216.689697,1177.293335 2202.938721,1191.778687 2190.633301,1209.089478 
	C2178.016357,1229.018311 2164.275146,1248.333252 2152.992920,1268.991211 
	C2119.134277,1330.986328 2105.477295,1398.194092 2104.405518,1468.301880 
	C2104.279541,1476.570068 2105.003906,1484.873047 2105.708008,1493.127930 
	C2107.258301,1511.300903 2108.093994,1529.603516 2110.926025,1547.584839 
	C2118.179443,1593.643433 2133.958008,1636.847534 2156.512939,1677.663940 
	C2195.890137,1748.922241 2250.333008,1804.542847 2324.131104,1840.279907 
	C2361.279785,1858.269287 2400.400879,1869.830566 2441.445312,1873.355347 
	C2467.569336,1875.598755 2493.885986,1875.242676 2520.139404,1872.452759 
	C2569.420410,1867.215576 2614.664795,1851.398682 2655.122803,1822.594604 
	C2674.152588,1809.046265 2691.553711,1793.688477 2706.364502,1773.840210 
	C2711.116455,1768.098633 2715.082031,1760.625000 2726.108643,1766.261719 
	C2726.108643,1776.701050 2726.108643,1787.892700 2725.778809,1801.055420 
M4457.908691,1814.907104 
	C4471.348145,1802.025269 4485.616211,1789.891724 4498.065430,1776.115112 
	C4529.833984,1740.960083 4553.912109,1700.834717 4571.884766,1657.008423 
	C4601.058105,1585.867798 4608.831543,1511.855591 4602.481445,1435.746948 
	C4598.512695,1388.182251 4587.002441,1342.641968 4568.046387,1298.955566 
	C4544.528809,1244.757324 4511.369141,1197.330933 4467.196289,1157.920044 
	C4439.701172,1133.388794 4409.052734,1113.575195 4375.792969,1097.603271 
	C4332.829590,1076.971069 4287.424805,1066.470703 4240.077148,1064.479492 
	C4210.436035,1063.232788 4180.869629,1065.586670 4151.828613,1072.022217 
	C4085.395020,1086.744141 4031.347900,1120.530396 3992.637207,1177.178833 
	C3988.365479,1183.429932 3984.033691,1185.850342 3975.796875,1183.007446 
	C3975.435547,1152.715698 3975.968750,1121.936890 3975.501709,1090.955811 
	C3909.225586,1090.955811 3844.411621,1090.955811 3779.733154,1090.955811 
	C3777.468994,1101.844360 3777.851807,2212.242676 3779.988770,2219.520508 
	C3794.046387,2221.319092 3980.247070,2220.638672 3988.319092,2218.516357 
	C3988.319092,2214.512207 3988.319092,2210.238525 3988.319092,2205.964844 
	C3988.319092,2115.986328 3987.666504,2026.000977 3988.598389,1936.032104 
	C3989.055664,1891.904419 3984.002197,1848.434326 3978.656494,1804.867920 
	C3977.703125,1797.097900 3977.235107,1789.268433 3976.490479,1780.873047 
	C3980.818359,1780.873047 3984.041992,1780.873047 3987.947021,1780.873047 
	C3998.100342,1797.821655 4010.732422,1813.204224 4025.434814,1826.911377 
	C4054.614990,1854.116211 4087.811279,1874.568481 4126.059082,1886.246094 
	C4176.559082,1901.664307 4228.022461,1903.938599 4280.083008,1896.441772 
	C4346.862305,1886.825562 4404.904297,1858.047852 4457.908691,1814.907104 
M2038.595581,1607.565308 
	C2045.638550,1579.803223 2049.917480,1551.505127 2051.390381,1523.018677 
	C2053.399902,1484.163208 2053.700195,1445.232300 2048.211182,1406.489136 
	C2041.248413,1357.343140 2027.785522,1310.311157 2003.606567,1266.710449 
	C1960.813843,1189.544800 1898.292969,1134.701782 1816.412720,1101.936768 
	C1768.098511,1082.603516 1717.515747,1073.443237 1665.872437,1070.537598 
	C1618.330322,1067.862793 1570.874268,1069.625977 1523.737671,1077.613403 
	C1470.438721,1086.645020 1419.816895,1103.053101 1373.126709,1130.625732 
	C1305.784790,1170.394043 1255.462646,1225.542725 1223.523804,1297.148682 
	C1198.918823,1352.312378 1188.795898,1410.663330 1186.481323,1470.519531 
	C1185.157471,1504.754272 1186.793335,1538.958862 1191.726929,1572.954346 
	C1197.974121,1616.002319 1209.292114,1657.496460 1228.511108,1696.679565 
	C1267.584229,1776.340576 1327.942993,1833.926392 1408.693481,1870.264893 
	C1468.777344,1897.303101 1532.524658,1907.294922 1597.728516,1909.534790 
	C1630.632812,1910.665039 1663.460693,1908.602783 1696.177612,1904.440186 
	C1749.097534,1897.706909 1799.563721,1883.370239 1847.100830,1858.762451 
	C1886.933594,1838.142822 1921.517090,1810.836060 1951.411011,1777.723755 
	C1995.141357,1729.284912 2022.877930,1672.354370 2038.595581,1607.565308 
M3077.229980,1777.754395 
	C3084.697021,1784.873047 3092.031982,1792.136230 3099.654297,1799.084595 
	C3128.421631,1825.307861 3160.941895,1845.870361 3196.211426,1862.096436 
	C3246.634033,1885.293945 3299.724365,1897.384521 3355.132324,1899.752197 
	C3394.105957,1901.417358 3432.726318,1899.172363 3471.265869,1892.648438 
	C3546.938477,1879.838379 3610.919189,1844.776855 3666.041260,1792.405396 
	C3692.212402,1767.540039 3714.827148,1739.653809 3734.006592,1709.069824 
	C3740.974609,1697.958740 3747.151855,1686.351562 3754.076416,1674.298096 
	C3689.006592,1646.093140 3625.370117,1618.509399 3561.363037,1590.765137 
	C3556.637695,1598.920898 3552.528809,1606.494507 3547.973877,1613.789429 
	C3530.036621,1642.516113 3507.166016,1666.251709 3477.183105,1682.571045 
	C3435.823242,1705.082886 3391.099609,1711.227051 3345.673584,1703.197754 
	C3264.647705,1688.876099 3211.931152,1640.029053 3186.220703,1562.381348 
	C3175.260498,1529.280640 3172.689209,1495.002808 3175.475342,1460.071045 
	C3180.068604,1402.477539 3199.938232,1352.196411 3242.519775,1312.028442 
	C3264.429199,1291.360596 3290.024658,1276.985840 3318.627930,1267.750122 
	C3340.776123,1260.598633 3363.506348,1259.262695 3386.604004,1259.567627 
	C3449.435059,1260.397339 3498.728271,1286.289795 3534.145996,1338.213745 
	C3540.867188,1348.066772 3546.767334,1358.479614 3553.518799,1369.398071 
	C3617.331543,1342.803101 3681.276367,1316.153198 3745.172119,1289.523560 
	C3744.496094,1287.160278 3744.223145,1285.846069 3743.743164,1284.612671 
	C3743.020752,1282.755737 3742.199219,1280.933472 3741.341553,1279.133789 
	C3720.348633,1235.074585 3692.308350,1196.263550 3656.030029,1163.416992 
	C3623.410400,1133.883179 3587.236572,1110.130981 3546.337891,1093.654419 
	C3496.987549,1073.773438 3445.296875,1066.275269 3392.558105,1064.372681 
	C3367.265625,1063.460205 3342.044189,1065.277344 3316.990234,1068.457397 
	C3278.901367,1073.291870 3242.059814,1083.105957 3206.690918,1098.214844 
	C3160.614258,1117.897827 3119.295898,1144.788818 3083.558350,1179.983032 
	C3056.594727,1206.536499 3034.232910,1236.609619 3016.005371,1269.786621 
	C2984.569336,1327.005005 2967.944580,1388.502075 2964.628662,1453.418579 
	C2963.343994,1478.569336 2964.320312,1503.966553 2966.143799,1529.115356 
	C2969.041748,1569.079834 2978.449707,1607.727051 2993.171387,1645.102051 
	C3012.543213,1694.282227 3039.945312,1738.295898 3077.229980,1777.754395 
M466.995789,1740.332764 
	C418.719177,1740.921753 372.744843,1729.874512 328.005737,1712.710815 
	C299.984558,1701.960815 273.215149,1688.590820 247.206223,1673.658081 
	C243.969543,1671.799805 240.632156,1670.116821 236.714691,1668.016602 
	C236.714691,1735.943726 236.714691,1802.208252 236.714691,1868.651611 
	C238.166290,1869.260986 239.337830,1869.802246 240.543701,1870.251587 
	C268.318726,1880.601440 296.760040,1888.547974 325.728699,1894.864014 
	C369.058136,1904.311157 412.941772,1908.513794 457.157135,1909.538452 
	C472.753357,1909.900024 488.382751,1908.733276 503.999054,1908.345337 
	C536.661011,1907.534058 568.875183,1903.116577 600.641418,1895.700684 
	C647.825562,1884.685669 691.707520,1866.345337 730.079590,1836.067627 
	C758.751526,1813.443970 782.129822,1786.353638 797.483521,1753.150269 
	C820.525269,1703.321167 825.670959,1650.985962 815.677124,1597.270874 
	C807.427429,1552.930542 786.123779,1515.827271 751.841858,1486.151489 
	C725.380981,1463.246094 695.493713,1445.880371 663.670654,1432.082031 
	C634.718445,1419.528687 604.897217,1408.985840 575.509399,1397.428589 
	C552.889282,1388.532959 530.449829,1379.227417 510.137573,1365.578369 
	C488.752777,1351.208740 479.144562,1330.280029 478.531311,1305.370239 
	C477.867279,1278.398071 491.928345,1258.425659 516.978394,1247.874146 
	C532.546082,1241.317017 549.058716,1239.107666 565.641113,1238.499756 
	C592.942627,1237.498901 620.032898,1240.178833 646.892273,1245.370117 
	C688.120850,1253.338867 726.663269,1268.375000 763.240784,1288.763062 
	C765.646790,1290.104126 768.286438,1291.025879 770.986938,1292.217529 
	C770.986938,1227.873657 770.986938,1164.687988 770.986938,1101.993408 
	C770.032837,1101.318481 769.789673,1101.045166 769.489563,1100.948364 
	C715.155090,1083.410034 659.536865,1072.902222 602.453735,1070.301025 
	C552.414551,1068.020874 502.758789,1070.604736 453.817566,1081.993896 
	C404.225311,1093.534302 358.598755,1113.425903 318.999573,1146.114380 
	C264.226257,1191.328735 237.454803,1249.840332 236.524429,1320.341431 
	C236.315063,1336.205933 237.612732,1352.240845 239.871643,1367.959473 
	C247.046295,1417.884399 268.654816,1460.194824 307.922607,1492.812500 
	C335.053162,1515.348389 365.438690,1532.468262 397.700348,1546.199829 
	C434.410095,1561.824829 471.655396,1576.192871 508.345306,1591.862671 
	C526.357300,1599.555542 544.246765,1607.900391 559.575562,1620.553955 
	C585.758667,1642.167480 590.326111,1680.570801 569.954163,1707.542969 
	C560.297180,1720.328613 546.713318,1727.271851 531.971252,1731.985474 
	C511.530212,1738.521362 490.398773,1740.676758 466.995789,1740.332764 
M913.001343,1889.663818 
	C982.524109,1889.663818 1052.046875,1889.663818 1121.659424,1889.663818 
	C1121.659424,1493.955811 1121.659424,1099.585205 1121.659424,705.304077 
	C1105.134277,703.122131 881.657837,703.912537 874.334106,706.248901 
	C874.334106,1097.958984 874.333496,1489.831909 874.352295,1881.704834 
	C874.352356,1883.690796 874.607117,1885.678589 874.797546,1887.660400 
	C874.823853,1887.933716 875.154907,1888.187622 875.368103,1888.430298 
	C875.587708,1888.679932 875.835632,1888.904907 876.593567,1889.663818 
	C887.710449,1889.663818 899.356323,1889.663818 913.001343,1889.663818 
z"/>
<path fill="#34A853" opacity="1.000000" stroke="none" 
	d="
M4457.354492,1815.356689 
	C4404.904297,1858.047852 4346.862305,1886.825562 4280.083008,1896.441772 
	C4228.022461,1903.938599 4176.559082,1901.664307 4126.059082,1886.246094 
	C4087.811279,1874.568481 4054.614990,1854.116211 4025.434814,1826.911377 
	C4010.732422,1813.204224 3998.100342,1797.821655 3987.947021,1780.873047 
	C3984.041992,1780.873047 3980.818359,1780.873047 3976.490479,1780.873047 
	C3977.235107,1789.268433 3977.703125,1797.097900 3978.656494,1804.867920 
	C3984.002197,1848.434326 3989.055664,1891.904419 3988.598389,1936.032104 
	C3987.666504,2026.000977 3988.319092,2115.986328 3988.319092,2205.964844 
	C3988.319092,2210.238525 3988.319092,2214.512207 3988.319092,2218.516357 
	C3980.247070,2220.638672 3794.046387,2221.319092 3779.988770,2219.520508 
	C3777.851807,2212.242676 3777.468994,1101.844360 3779.733154,1090.955811 
	C3844.411621,1090.955811 3909.225586,1090.955811 3975.501709,1090.955811 
	C3975.968750,1121.936890 3975.435547,1152.715698 3975.796875,1183.007446 
	C3984.033691,1185.850342 3988.365479,1183.429932 3992.637207,1177.178833 
	C4031.347900,1120.530396 4085.395020,1086.744141 4151.828613,1072.022217 
	C4180.869629,1065.586670 4210.436035,1063.232788 4240.077148,1064.479492 
	C4287.424805,1066.470703 4332.829590,1076.971069 4375.792969,1097.603271 
	C4409.052734,1113.575195 4439.701172,1133.388794 4467.196289,1157.920044 
	C4511.369141,1197.330933 4544.528809,1244.757324 4568.046387,1298.955566 
	C4587.002441,1342.641968 4598.512695,1388.182251 4602.481445,1435.746948 
	C4608.831543,1511.855591 4601.058105,1585.867798 4571.884766,1657.008423 
	C4553.912109,1700.834717 4529.833984,1740.960083 4498.065430,1776.115112 
	C4485.616211,1789.891724 4471.348145,1802.025269 4457.354492,1815.356689 
M4388.247070,1426.905396 
	C4377.159180,1380.227173 4354.961914,1340.021240 4318.122070,1308.750000 
	C4270.146484,1268.026123 4214.452148,1251.966431 4152.555176,1261.894897 
	C4071.545898,1274.889038 4018.227051,1322.818848 3989.892822,1398.683716 
	C3972.295654,1445.800171 3971.707275,1494.621948 3982.898438,1543.215942 
	C3993.343262,1588.571289 4016.071777,1627.477051 4051.853516,1657.635498 
	C4097.535156,1696.137939 4150.807129,1711.340698 4209.923340,1704.168579 
	C4264.624512,1697.531982 4309.933594,1672.395142 4344.192383,1629.258179 
	C4391.412109,1569.800293 4402.962402,1501.918335 4388.247070,1426.905396 
z"/>
<path fill="#00ADD8" opacity="1.000000" stroke="none" 
	d="
M2038.434814,1608.375732 
	C2022.877930,1672.354370 1995.141357,1729.284912 1951.411011,1777.723755 
	C1921.517090,1810.836060 1886.933594,1838.142822 1847.100830,1858.762451 
	C1799.563721,1883.370239 1749.097534,1897.706909 1696.177612,1904.440186 
	C1663.460693,1908.602783 1630.632812,1910.665039 1597.728516,1909.534790 
	C1532.524658,1907.294922 1468.777344,1897.303101 1408.693481,1870.264893 
	C1327.942993,1833.926392 1267.584229,1776.340576 1228.511108,1696.679565 
	C1209.292114,1657.496460 1197.974121,1616.002319 1191.726929,1572.954346 
	C1186.793335,1538.958862 1185.157471,1504.754272 1186.481323,1470.519531 
	C1188.795898,1410.663330 1198.918823,1352.312378 1223.523804,1297.148682 
	C1255.462646,1225.542725 1305.784790,1170.394043 1373.126709,1130.625732 
	C1419.816895,1103.053101 1470.438721,1086.645020 1523.737671,1077.613403 
	C1570.874268,1069.625977 1618.330322,1067.862793 1665.872437,1070.537598 
	C1717.515747,1073.443237 1768.098511,1082.603516 1816.412720,1101.936768 
	C1898.292969,1134.701782 1960.813843,1189.544800 2003.606567,1266.710449 
	C2027.785522,1310.311157 2041.248413,1357.343140 2048.211182,1406.489136 
	C2053.700195,1445.232300 2053.399902,1484.163208 2051.390381,1523.018677 
	C2049.917480,1551.505127 2045.638550,1579.803223 2038.434814,1608.375732 
M1539.952881,1276.738647 
	C1507.403687,1292.714844 1483.728394,1317.596069 1467.028320,1349.459595 
	C1447.462891,1386.789795 1440.360840,1427.220581 1438.547852,1468.689941 
	C1437.722046,1487.582275 1438.846069,1506.593506 1439.739380,1525.520020 
	C1441.414673,1561.014526 1448.319214,1595.355103 1463.484985,1627.782837 
	C1479.619141,1662.280762 1504.001465,1688.791138 1539.393066,1703.551880 
	C1585.800293,1722.907104 1633.754395,1724.821777 1681.948730,1711.413208 
	C1724.239136,1699.647339 1753.658813,1671.926880 1772.654053,1632.892456 
	C1791.027344,1595.136353 1797.655029,1554.500854 1799.400513,1513.118896 
	C1800.420776,1488.928101 1799.525024,1464.581909 1798.133911,1440.383667 
	C1796.486084,1411.720459 1790.461792,1383.784058 1779.583618,1357.073242 
	C1764.976440,1321.206055 1741.560181,1293.214233 1706.142212,1276.330444 
	C1683.917969,1265.735962 1660.152710,1261.200073 1635.724487,1259.921265 
	C1603.060181,1258.211182 1571.327637,1262.190674 1539.952881,1276.738647 
z"/>
<path fill="#FABB05" opacity="1.000000" stroke="none" 
	d="
M3076.730957,1777.254395 
	C3039.945312,1738.295898 3012.543213,1694.282227 2993.171387,1645.102051 
	C2978.449707,1607.727051 2969.041748,1569.079834 2966.143799,1529.115356 
	C2964.320312,1503.966553 2963.343994,1478.569336 2964.628662,1453.418579 
	C2967.944580,1388.502075 2984.569336,1327.005005 3016.005371,1269.786621 
	C3034.232910,1236.609619 3056.594727,1206.536499 3083.558350,1179.983032 
	C3119.295898,1144.788818 3160.614258,1117.897827 3206.690918,1098.214844 
	C3242.059814,1083.105957 3278.901367,1073.291870 3316.990234,1068.457397 
	C3342.044189,1065.277344 3367.265625,1063.460205 3392.558105,1064.372681 
	C3445.296875,1066.275269 3496.987549,1073.773438 3546.337891,1093.654419 
	C3587.236572,1110.130981 3623.410400,1133.883179 3656.030029,1163.416992 
	C3692.308350,1196.263550 3720.348633,1235.074585 3741.341553,1279.133789 
	C3742.199219,1280.933472 3743.020752,1282.755737 3743.743164,1284.612671 
	C3744.223145,1285.846069 3744.496094,1287.160278 3745.172119,1289.523560 
	C3681.276367,1316.153198 3617.331543,1342.803101 3553.518799,1369.398071 
	C3546.767334,1358.479614 3540.867188,1348.066772 3534.145996,1338.213745 
	C3498.728271,1286.289795 3449.435059,1260.397339 3386.604004,1259.567627 
	C3363.506348,1259.262695 3340.776123,1260.598633 3318.627930,1267.750122 
	C3290.024658,1276.985840 3264.429199,1291.360596 3242.519775,1312.028442 
	C3199.938232,1352.196411 3180.068604,1402.477539 3175.475342,1460.071045 
	C3172.689209,1495.002808 3175.260498,1529.280640 3186.220703,1562.381348 
	C3211.931152,1640.029053 3264.647705,1688.876099 3345.673584,1703.197754 
	C3391.099609,1711.227051 3435.823242,1705.082886 3477.183105,1682.571045 
	C3507.166016,1666.251709 3530.036621,1642.516113 3547.973877,1613.789429 
	C3552.528809,1606.494507 3556.637695,1598.920898 3561.363037,1590.765137 
	C3625.370117,1618.509399 3689.006592,1646.093140 3754.076416,1674.298096 
	C3747.151855,1686.351562 3740.974609,1697.958740 3734.006592,1709.069824 
	C3714.827148,1739.653809 3692.212402,1767.540039 3666.041260,1792.405396 
	C3610.919189,1844.776855 3546.938477,1879.838379 3471.265869,1892.648438 
	C3432.726318,1899.172363 3394.105957,1901.417358 3355.132324,1899.752197 
	C3299.724365,1897.384521 3246.634033,1885.293945 3196.211426,1862.096436 
	C3160.941895,1845.870361 3128.421631,1825.307861 3099.654297,1799.084595 
	C3092.031982,1792.136230 3084.697021,1784.873047 3076.730957,1777.254395 
z"/>
<path fill="#00ADD7" opacity="1.000000" stroke="none" 
	d="
M467.992676,1740.332764 
	C490.398773,1740.676758 511.530212,1738.521362 531.971252,1731.985474 
	C546.713318,1727.271851 560.297180,1720.328613 569.954163,1707.542969 
	C590.326111,1680.570801 585.758667,1642.167480 559.575562,1620.553955 
	C544.246765,1607.900391 526.357300,1599.555542 508.345306,1591.862671 
	C471.655396,1576.192871 434.410095,1561.824829 397.700348,1546.199829 
	C365.438690,1532.468262 335.053162,1515.348389 307.922607,1492.812500 
	C268.654816,1460.194824 247.046295,1417.884399 239.871643,1367.959473 
	C237.612732,1352.240845 236.315063,1336.205933 236.524429,1320.341431 
	C237.454803,1249.840332 264.226257,1191.328735 318.999573,1146.114380 
	C358.598755,1113.425903 404.225311,1093.534302 453.817566,1081.993896 
	C502.758789,1070.604736 552.414551,1068.020874 602.453735,1070.301025 
	C659.536865,1072.902222 715.155090,1083.410034 769.489563,1100.948364 
	C769.789673,1101.045166 770.032837,1101.318481 770.986938,1101.993408 
	C770.986938,1164.687988 770.986938,1227.873657 770.986938,1292.217529 
	C768.286438,1291.025879 765.646790,1290.104126 763.240784,1288.763062 
	C726.663269,1268.375000 688.120850,1253.338867 646.892273,1245.370117 
	C620.032898,1240.178833 592.942627,1237.498901 565.641113,1238.499756 
	C549.058716,1239.107666 532.546082,1241.317017 516.978394,1247.874146 
	C491.928345,1258.425659 477.867279,1278.398071 478.531311,1305.370239 
	C479.144562,1330.280029 488.752777,1351.208740 510.137573,1365.578369 
	C530.449829,1379.227417 552.889282,1388.532959 575.509399,1397.428589 
	C604.897217,1408.985840 634.718445,1419.528687 663.670654,1432.082031 
	C695.493713,1445.880371 725.380981,1463.246094 751.841858,1486.151489 
	C786.123779,1515.827271 807.427429,1552.930542 815.677124,1597.270874 
	C825.670959,1650.985962 820.525269,1703.321167 797.483521,1753.150269 
	C782.129822,1786.353638 758.751526,1813.443970 730.079590,1836.067627 
	C691.707520,1866.345337 647.825562,1884.685669 600.641418,1895.700684 
	C568.875183,1903.116577 536.661011,1907.534058 503.999054,1908.345337 
	C488.382751,1908.733276 472.753357,1909.900024 457.157135,1909.538452 
	C412.941772,1908.513794 369.058136,1904.311157 325.728699,1894.864014 
	C296.760040,1888.547974 268.318726,1880.601440 240.543701,1870.251587 
	C239.337830,1869.802246 238.166290,1869.260986 236.714691,1868.651611 
	C236.714691,1802.208252 236.714691,1735.943726 236.714691,1668.016602 
	C240.632156,1670.116821 243.969543,1671.799805 247.206223,1673.658081 
	C273.215149,1688.590820 299.984558,1701.960815 328.005737,1712.710815 
	C372.744843,1729.874512 418.719177,1740.921753 467.992676,1740.332764 
z"/>
<path fill="#00ADD8" opacity="1.000000" stroke="none" 
	d="
M912.001770,1889.663818 
	C899.356323,1889.663818 887.710449,1889.663818 876.593567,1889.663818 
	C875.835632,1888.904907 875.587708,1888.679932 875.368103,1888.430298 
	C875.154907,1888.187622 874.823853,1887.933716 874.797546,1887.660400 
	C874.607117,1885.678589 874.352356,1883.690796 874.352295,1881.704834 
	C874.333496,1489.831909 874.334106,1097.958984 874.334106,706.248901 
	C881.657837,703.912537 1105.134277,703.122131 1121.659424,705.304077 
	C1121.659424,1099.585205 1121.659424,1493.955811 1121.659424,1889.663818 
	C1052.046875,1889.663818 982.524109,1889.663818 912.001770,1889.663818 
z"/>
<path fill="#EA4335" opacity="1.000000" stroke="none" 
	d="
M2191.727051,1208.431274 
	C2202.938721,1191.778687 2216.689697,1177.293335 2231.138184,1163.539551 
	C2257.822266,1138.138550 2287.601074,1116.991821 2320.795410,1100.855591 
	C2362.205566,1080.725708 2405.654785,1068.529907 2451.825439,1065.487549 
	C2500.249268,1062.296875 2547.486572,1067.190552 2593.044434,1083.997314 
	C2638.993896,1100.948608 2677.833984,1128.303101 2707.855469,1167.331055 
	C2712.618408,1173.522583 2717.352051,1176.049438 2725.589111,1173.026245 
	C2725.589111,1146.085449 2725.589111,1118.874634 2725.589111,1091.008545 
	C2792.655029,1091.008545 2858.778076,1091.008545 2926.336670,1091.008545 
	C2926.336670,1095.375244 2926.336670,1099.581421 2926.336670,1103.787598 
	C2926.336670,1313.409790 2926.336670,1523.031982 2926.336670,1732.654175 
	C2926.336670,1766.980225 2926.851318,1801.315796 2926.216309,1835.630127 
	C2925.257324,1887.451172 2917.278564,1938.172485 2898.946289,1987.319824 
	C2893.024170,1982.083618 2887.989746,1976.779663 2883.082520,1971.360718 
	C2861.686279,1947.733643 2840.325928,1924.074463 2818.955322,1900.424072 
	C2800.923584,1880.468628 2782.983154,1860.429565 2764.836426,1840.579346 
	C2752.071289,1826.615845 2739.027832,1812.906982 2726.108643,1799.084473 
	C2726.108643,1787.892700 2726.108643,1776.701050 2726.108643,1766.261719 
	C2715.082031,1760.625000 2711.116455,1768.098633 2705.226074,1773.713867 
	C2702.921387,1772.404785 2701.710938,1771.261963 2700.594727,1770.033813 
	C2680.745605,1748.192627 2660.841797,1726.400635 2641.093506,1704.468506 
	C2629.788574,1691.913574 2618.739990,1679.127441 2608.096680,1666.072998 
	C2629.868164,1655.638794 2649.263428,1642.714844 2665.528809,1625.770264 
	C2704.330566,1585.347656 2723.503906,1536.523804 2725.625977,1480.807007 
	C2726.336182,1462.156982 2725.127686,1443.573486 2721.756592,1425.205078 
	C2712.939941,1377.165161 2691.774414,1335.522583 2654.380615,1303.705688 
	C2609.349121,1265.390259 2556.584229,1249.640015 2497.733398,1255.743774 
	C2445.076904,1261.205322 2400.878662,1283.769653 2367.015869,1324.655273 
	C2355.853760,1338.131958 2347.303223,1353.771240 2336.907959,1368.038574 
	C2330.784668,1361.860352 2325.210449,1356.157471 2319.856689,1350.254761 
	C2294.886230,1322.723877 2269.965332,1295.148315 2245.049316,1267.568115 
	C2227.256592,1247.872681 2209.500000,1228.144653 2191.727051,1208.431274 
z"/>
<path fill="#00ACD7" opacity="1.000000" stroke="none" 
	d="
M2191.180176,1208.760376 
	C2209.500000,1228.144653 2227.256592,1247.872681 2245.049316,1267.568115 
	C2269.965332,1295.148315 2294.886230,1322.723877 2319.856689,1350.254761 
	C2325.210449,1356.157471 2330.784668,1361.860352 2336.675781,1368.776123 
	C2334.026855,1377.258545 2330.559814,1384.481934 2327.958496,1392.004761 
	C2313.717285,1433.190308 2311.478760,1475.478394 2319.890137,1517.864990 
	C2333.754639,1587.731934 2372.520508,1639.036011 2438.275635,1668.157227 
	C2474.597900,1684.243286 2512.669678,1689.128052 2552.182373,1682.525146 
	C2571.357910,1679.320679 2589.567139,1673.370117 2607.575928,1666.445312 
	C2618.739990,1679.127441 2629.788574,1691.913574 2641.093506,1704.468506 
	C2660.841797,1726.400635 2680.745605,1748.192627 2700.594727,1770.033813 
	C2701.710938,1771.261963 2702.921387,1772.404785 2704.677002,1774.062744 
	C2691.553711,1793.688477 2674.152588,1809.046265 2655.122803,1822.594604 
	C2614.664795,1851.398682 2569.420410,1867.215576 2520.139404,1872.452759 
	C2493.885986,1875.242676 2467.569336,1875.598755 2441.445312,1873.355347 
	C2400.400879,1869.830566 2361.279785,1858.269287 2324.131104,1840.279907 
	C2250.333008,1804.542847 2195.890137,1748.922241 2156.512939,1677.663940 
	C2133.958008,1636.847534 2118.179443,1593.643433 2110.926025,1547.584839 
	C2108.093994,1529.603516 2107.258301,1511.300903 2105.708008,1493.127930 
	C2105.003906,1484.873047 2104.279541,1476.570068 2104.405518,1468.301880 
	C2105.477295,1398.194092 2119.134277,1330.986328 2152.992920,1268.991211 
	C2164.275146,1248.333252 2178.016357,1229.018311 2191.180176,1208.760376 
z"/>
<path fill="#00ACD7" opacity="1.000000" stroke="none" 
	d="
M2725.943848,1800.069946 
	C2739.027832,1812.906982 2752.071289,1826.615845 2764.836426,1840.579346 
	C2782.983154,1860.429565 2800.923584,1880.468628 2818.955322,1900.424072 
	C2840.325928,1924.074463 2861.686279,1947.733643 2883.082520,1971.360718 
	C2887.989746,1976.779663 2893.024170,1982.083618 2898.572266,1987.909302 
	C2890.097900,2016.402222 2877.184814,2042.644897 2861.686523,2067.570801 
	C2808.019287,2153.883789 2730.263184,2206.869873 2632.694336,2232.146729 
	C2607.565430,2238.656738 2581.995117,2242.280762 2556.110352,2244.577637 
	C2528.828369,2246.998047 2501.543213,2247.225830 2474.364014,2245.460693 
	C2382.289795,2239.480469 2299.083008,2209.752686 2227.083008,2150.889404 
	C2190.284912,2120.805176 2160.459961,2085.020264 2138.340820,2042.960571 
	C2132.814209,2032.452026 2128.510742,2021.300171 2123.115967,2009.263672 
	C2190.555908,1982.276978 2257.070801,1955.660400 2324.336426,1928.743408 
	C2326.952881,1934.620972 2329.279297,1939.978027 2331.709717,1945.287476 
	C2359.485840,2005.968750 2406.919189,2042.389648 2471.551270,2055.914062 
	C2511.295410,2064.230713 2551.039307,2060.932617 2589.521729,2047.780884 
	C2632.774902,2032.998657 2665.746094,2005.033325 2689.593506,1966.273926 
	C2708.023926,1936.318848 2717.706787,1903.341187 2722.317139,1868.690308 
	C2725.305420,1846.232910 2725.956299,1823.668457 2725.943848,1800.069946 
z"/>
<path fill="#000000" opacity="1.000000" stroke="none" 
	d="
M4388.359375,1427.734497 
	C4402.962402,1501.918335 4391.412109,1569.800293 4344.192383,1629.258179 
	C4309.933594,1672.395142 4264.624512,1697.531982 4209.923340,1704.168579 
	C4150.807129,1711.340698 4097.535156,1696.137939 4051.853516,1657.635498 
	C4016.071777,1627.477051 3993.343262,1588.571289 3982.898438,1543.215942 
	C3971.707275,1494.621948 3972.295654,1445.800171 3989.892822,1398.683716 
	C4018.227051,1322.818848 4071.545898,1274.889038 4152.555176,1261.894897 
	C4214.452148,1251.966431 4270.146484,1268.026123 4318.122070,1308.750000 
	C4354.961914,1340.021240 4377.159180,1380.227173 4388.359375,1427.734497 
z"/>
<path fill="#000000" opacity="1.000000" stroke="none" 
	d="
M1540.632446,1276.408203 
	C1571.327637,1262.190674 1603.060181,1258.211182 1635.724487,1259.921265 
	C1660.152710,1261.200073 1683.917969,1265.735962 1706.142212,1276.330444 
	C1741.560181,1293.214233 1764.976440,1321.206055 1779.583618,1357.073242 
	C1790.461792,1383.784058 1796.486084,1411.720459 1798.133911,1440.383667 
	C1799.525024,1464.581909 1800.420776,1488.928101 1799.400513,1513.118896 
	C1797.655029,1554.500854 1791.027344,1595.136353 1772.654053,1632.892456 
	C1753.658813,1671.926880 1724.239136,1699.647339 1681.948730,1711.413208 
	C1633.754395,1724.821777 1585.800293,1722.907104 1539.393066,1703.551880 
	C1504.001465,1688.791138 1479.619141,1662.280762 1463.484985,1627.782837 
	C1448.319214,1595.355103 1441.414673,1561.014526 1439.739380,1525.520020 
	C1438.846069,1506.593506 1437.722046,1487.582275 1438.547852,1468.689941 
	C1440.360840,1427.220581 1447.462891,1386.789795 1467.028320,1349.459595 
	C1483.728394,1317.596069 1507.403687,1292.714844 1540.632446,1276.408203 
z"/>
<path fill="#000000" opacity="1.000000" stroke="none" 
	d="
M2608.096680,1666.072998 
	C2589.567139,1673.370117 2571.357910,1679.320679 2552.182373,1682.525146 
	C2512.669678,1689.128052 2474.597900,1684.243286 2438.275635,1668.157227 
	C2372.520508,1639.036011 2333.754639,1587.731934 2319.890137,1517.864990 
	C2311.478760,1475.478394 2313.717285,1433.190308 2327.958496,1392.004761 
	C2330.559814,1384.481934 2334.026855,1377.258545 2337.326172,1369.159424 
	C2347.303223,1353.771240 2355.853760,1338.131958 2367.015869,1324.655273 
	C2400.878662,1283.769653 2445.076904,1261.205322 2497.733398,1255.743774 
	C2556.584229,1249.640015 2609.349121,1265.390259 2654.380615,1303.705688 
	C2691.774414,1335.522583 2712.939941,1377.165161 2721.756592,1425.205078 
	C2725.127686,1443.573486 2726.336182,1462.156982 2725.625977,1480.807007 
	C2723.503906,1536.523804 2704.330566,1585.347656 2665.528809,1625.770264 
	C2649.263428,1642.714844 2629.868164,1655.638794 2608.096680,1666.072998 
z"/>
</svg>